<svg width="80" height="80" viewBox="0 0 80 80" fill="none" xmlns="http://www.w3.org/2000/svg">
<path fill-rule="evenodd" clip-rule="evenodd" d="M0 0V60.7415H18.0607V79.753H32.0912V59.572C33.1152 59.2973 34.1101 58.9742 35.0761 58.6027C36.3853 58.0869 37.6255 57.5022 38.7968 56.8484L45.2661 69.829H52.7946L65.9695 43.3936V79.753H79.9999V19.0115H64.8573L49.0303 50.751L47.9096 48.4913C49.0672 46.7687 50.0365 44.892 50.8175 42.8613C52.2434 39.097 52.9563 34.905 52.9563 30.2852C52.9563 26.1217 52.3004 22.2148 50.9886 18.5647C49.7339 14.8574 47.8232 11.635 45.2567 8.89735C42.7472 6.1597 39.6103 3.9924 35.846 2.39544C32.0818 0.79848 27.6901 0 22.6711 0H0ZM37.557 23.0133C38.2985 25.1806 38.6692 27.6046 38.6692 30.2852C38.6692 32.9088 38.2985 35.3327 37.557 37.5571C36.8726 39.7244 35.846 41.635 34.4772 43.289C33.1654 44.886 31.5114 46.1407 29.5152 47.0533C27.519 47.9658 25.2376 48.4221 22.6711 48.4221H14.0304V12.3194H22.6711C25.1806 12.3194 27.4335 12.7472 29.4297 13.6027C31.4259 14.4582 33.1084 15.6844 34.4772 17.2814C35.846 18.8783 36.8726 20.789 37.557 23.0133Z" fill="black"/>
</svg>
